<svg width="27" height="33" viewBox="0 0 27 33" fill="none" xmlns="http://www.w3.org/2000/svg">
<path d="M22.3137 17.4336C22.3459 15.0108 23.6877 12.7183 25.8163 11.4493C24.4734 9.58965 22.2242 8.41054 19.8842 8.33955C17.3883 8.08551 14.9687 9.78778 13.6968 9.78778C12.4004 9.78778 10.4421 8.36477 8.33347 8.40684C5.58491 8.49295 3.02256 10.0083 1.68533 12.3384C-1.18919 17.1644 0.95494 24.257 3.70849 28.1579C5.08615 30.0681 6.69624 32.2018 8.80301 32.1262C10.8646 32.0433 11.6346 30.8514 14.1231 30.8514C16.5885 30.8514 17.3109 32.1262 19.4604 32.0781C21.6726 32.0432 23.0664 30.1594 24.3957 28.2311C25.3856 26.87 26.1473 25.3658 26.6526 23.774C24.0529 22.7077 22.3167 20.1708 22.3137 17.4336Z" fill="white"/>
<path d="M18.2536 5.77409C19.4598 4.36999 20.054 2.56526 19.9101 0.743164C18.0673 0.930847 16.3651 1.78488 15.1427 3.13511C13.9472 4.45435 13.3251 6.22732 13.4428 7.97978C15.2862 7.99819 17.0984 7.1673 18.2536 5.77409Z" fill="white"/>
</svg>
