<svg width="56" height="56" viewBox="0 0 56 56" fill="none" xmlns="http://www.w3.org/2000/svg">
<rect width="56" height="56" rx="28" fill="#B12433"/>
<g clip-path="url(#clip0_506_29494)">
<mask id="mask0_506_29494" style="mask-type:luminance" maskUnits="userSpaceOnUse" x="11" y="11" width="34" height="34">
<path d="M44.8031 11.2002H11.2031V44.8002H44.8031V11.2002Z" fill="white"/>
<path d="M26.8242 27.6064C26.8242 26.8816 27.4118 26.2939 28.1367 26.2939C28.8616 26.2939 29.4492 26.8816 29.4492 27.6064C29.4492 28.3313 28.8616 28.9189 28.1367 28.9189C27.4118 28.9189 26.8242 28.3313 26.8242 27.6064Z" fill="white"/>
<path d="M36.5352 13.9561C36.5352 13.2312 37.1228 12.6436 37.8477 12.6436C38.5725 12.6436 39.1602 13.2312 39.1602 13.9561C39.1602 14.6809 38.5725 15.2686 37.8477 15.2686C37.1228 15.2686 36.5352 14.6809 36.5352 13.9561Z" fill="white"/>
<path d="M44.1505 19.9938H42.2891C42.0077 19.9938 41.7584 19.884 41.6715 19.6176L41.0871 17.8155C40.99 17.5177 40.7297 17.3688 40.4695 17.3688C40.2093 17.3688 39.9491 17.5177 39.8519 17.8155L39.2676 19.6176C39.1807 19.884 38.9314 19.9938 38.65 19.9938H36.7913C36.1622 19.9938 35.9006 20.8658 36.4096 21.2339L37.9072 22.3405C38.1347 22.5052 38.23 22.797 38.1431 23.0634L37.5588 24.8539C37.3644 25.4496 38.0491 25.9449 38.5581 25.5767L40.0878 24.4698C40.2016 24.3875 40.3355 24.3463 40.4695 24.3463C40.6035 24.3463 40.7374 24.3875 40.8512 24.4698L42.3809 25.5767C42.8899 25.9449 43.5747 25.4496 43.3803 24.8539L42.796 23.0634C42.709 22.797 42.8042 22.5052 43.0319 22.3405L44.5321 21.2339C45.041 20.8658 44.7795 19.9938 44.1505 19.9938Z" fill="white"/>
<path d="M19.4727 13.9561C19.4727 13.2312 18.885 12.6436 18.1602 12.6436C17.4353 12.6436 16.8477 13.2312 16.8477 13.9561C16.8477 14.6809 17.4353 15.2686 18.1602 15.2686C18.885 15.2686 19.4727 14.6809 19.4727 13.9561Z" fill="white"/>
<path d="M11.8537 19.9938H13.7151C13.9965 19.9938 14.2458 19.884 14.3327 19.6176L14.917 17.8155C15.0142 17.5177 15.2744 17.3688 15.5347 17.3688C15.7949 17.3688 16.0551 17.5177 16.1523 17.8155L16.7366 19.6176C16.8235 19.884 17.0728 19.9938 17.3542 19.9938H19.2129C19.842 19.9938 20.1036 20.8658 19.5946 21.2339L18.097 22.3405C17.8694 22.5052 17.7742 22.797 17.8611 23.0634L18.4454 24.8539C18.6398 25.4496 17.9551 25.9449 17.4461 25.5767L15.9164 24.4698C15.8026 24.3875 15.6686 24.3463 15.5347 24.3463C15.4007 24.3463 15.2668 24.3875 15.153 24.4698L13.6232 25.5767C13.1143 25.9449 12.4295 25.4496 12.6239 24.8539L13.2082 23.0634C13.2952 22.797 13.2 22.5052 12.9723 22.3405L11.4721 21.2339C10.9631 20.8658 11.2247 19.9938 11.8537 19.9938Z" fill="white"/>
</mask>
<g mask="url(#mask0_506_29494)">
<mask id="mask1_506_29494" style="mask-type:luminance" maskUnits="userSpaceOnUse" x="11" y="11" width="34" height="34">
<path d="M11.207 11.1998H44.807V44.7998H11.207V11.1998Z" fill="white"/>
</mask>
<g mask="url(#mask1_506_29494)">
<path d="M28.1367 32.1998V43.4873" stroke="#FFFCF7" stroke-width="2.625" stroke-linecap="round" stroke-linejoin="round"/>
<path d="M36.6719 29.2467C36.6719 29.2467 33.3906 33.7974 33.3906 43.4873" stroke="#FFFCF7" stroke-width="2.625" stroke-linecap="round" stroke-linejoin="round"/>
<path d="M33.1618 16.1216H30.601C30.2199 16.1216 29.8822 15.9187 29.7645 15.5579L28.9732 13.1173C28.8415 12.7139 28.4891 12.5123 28.1367 12.5123C27.7843 12.5123 27.4318 12.7139 27.3003 13.1173L26.5089 15.5579C26.3912 15.9187 26.0535 16.1216 25.6724 16.1216H23.1116C22.2597 16.1216 21.9054 17.2484 22.5947 17.747L24.6664 19.2457C24.9746 19.4687 25.1037 19.8639 24.9859 20.2247L24.1946 22.6496C23.9313 23.4564 24.8587 24.1272 25.5479 23.6286L27.6197 22.1295C27.7738 22.0181 27.9553 21.9623 28.1367 21.9623C28.3181 21.9623 28.4995 22.0181 28.6536 22.1295L30.7254 23.6286C31.4147 24.1272 32.3421 23.4564 32.0788 22.6496L31.2874 20.2247C31.1698 19.8639 31.2987 19.4687 31.607 19.2457L33.6787 17.747C34.368 17.2484 34.0137 16.1216 33.1618 16.1216Z" stroke="#FFFCF7" stroke-width="2.625" stroke-miterlimit="10" stroke-linecap="round" stroke-linejoin="round"/>
<path d="M26.8242 27.6064C26.8242 26.8816 27.4118 26.2939 28.1367 26.2939C28.8616 26.2939 29.4492 26.8816 29.4492 27.6064C29.4492 28.3313 28.8616 28.9189 28.1367 28.9189C27.4118 28.9189 26.8242 28.3313 26.8242 27.6064Z" fill="#FFFCF7"/>
<path d="M36.5391 13.9561C36.5391 13.2312 37.1267 12.6436 37.8516 12.6436C38.5765 12.6436 39.1641 13.2312 39.1641 13.9561C39.1641 14.6809 38.5765 15.2686 37.8516 15.2686C37.1267 15.2686 36.5391 14.6809 36.5391 13.9561Z" fill="#FFFCF7"/>
<path d="M44.1583 19.9938H42.2969C42.0155 19.9938 41.7662 19.884 41.6793 19.6176L41.095 17.8155C40.9978 17.5177 40.7376 17.3688 40.4773 17.3688C40.2171 17.3688 39.9569 17.5177 39.8597 17.8155L39.2754 19.6176C39.1885 19.884 38.9392 19.9938 38.6578 19.9938H36.7991C36.17 19.9938 35.9084 20.8658 36.4174 21.2339L37.915 22.3405C38.1426 22.5052 38.2378 22.797 38.1509 23.0634L37.5666 24.8539C37.3722 25.4496 38.0569 25.9449 38.5659 25.5767L40.0956 24.4698C40.2094 24.3875 40.3434 24.3463 40.4773 24.3463C40.6113 24.3463 40.7452 24.3875 40.859 24.4698L42.3888 25.5767C42.8977 25.9449 43.5825 25.4496 43.3881 24.8539L42.8038 23.0634C42.7168 22.797 42.812 22.5052 43.0397 22.3405L44.5399 21.2339C45.0489 20.8658 44.7873 19.9938 44.1583 19.9938Z" fill="#FFFCF7"/>
<path d="M19.3438 29.2467C19.3438 29.2467 22.625 33.7974 22.625 43.4873" stroke="#FFFCF7" stroke-width="2.625" stroke-linecap="round" stroke-linejoin="round"/>
<path d="M19.4766 13.9561C19.4766 13.2312 18.889 12.6436 18.1641 12.6436C17.4392 12.6436 16.8516 13.2312 16.8516 13.9561C16.8516 14.6809 17.4392 15.2686 18.1641 15.2686C18.889 15.2686 19.4766 14.6809 19.4766 13.9561Z" fill="#FFFCF7"/>
<path d="M11.8576 19.9938H13.719C14.0004 19.9938 14.2497 19.884 14.3366 19.6176L14.921 17.8155C15.0181 17.5177 15.2783 17.3688 15.5386 17.3688C15.7988 17.3688 16.059 17.5177 16.1562 17.8155L16.7405 19.6176C16.8274 19.884 17.0767 19.9938 17.3581 19.9938H19.2168C19.8459 19.9938 20.1075 20.8658 19.5985 21.2339L18.1009 22.3405C17.8734 22.5052 17.7781 22.797 17.865 23.0634L18.4493 24.8539C18.6437 25.4496 17.959 25.9449 17.45 25.5767L15.9203 24.4698C15.8065 24.3875 15.6726 24.3463 15.5386 24.3463C15.4046 24.3463 15.2707 24.3875 15.1569 24.4698L13.6272 25.5767C13.1182 25.9449 12.4334 25.4496 12.6278 24.8539L13.2121 23.0634C13.2991 22.797 13.2039 22.5052 12.9762 22.3405L11.476 21.2339C10.967 20.8658 11.2286 19.9938 11.8576 19.9938Z" fill="#FFFCF7"/>
</g>
</g>
</g>
<defs>
<clipPath id="clip0_506_29494">
<rect width="33.6" height="33.6" fill="white" transform="translate(11.1992 11.2002)"/>
</clipPath>
</defs>
</svg>
