<svg width="32" height="38" viewBox="0 0 32 38" fill="none" xmlns="http://www.w3.org/2000/svg">
<path fill-rule="evenodd" clip-rule="evenodd" d="M1.09604 1.67535C0.916436 2.07614 0.816406 2.5786 0.816406 3.17051V35.0456C0.816406 35.6388 0.91654 36.1412 1.09632 36.5417L17.0748 19.1068L1.09604 1.67535ZM1.89365 37.4487C2.49292 37.7732 3.29502 37.7034 4.17348 37.16L22.9523 25.5188L17.8892 19.9954L1.89365 37.4487ZM23.9924 24.8755L29.9375 21.1907C31.7832 20.0449 31.7832 18.1727 29.9375 17.0283L23.9894 13.3412L18.7046 19.1068L23.9924 24.8755ZM22.9501 12.697L17.8892 18.2181L1.89426 0.768423C2.49346 0.443952 3.29532 0.513229 4.17348 1.05762L22.9501 12.697Z" fill="white"/>
</svg>
