<svg width="56" height="24" viewBox="0 0 56 24" fill="none" xmlns="http://www.w3.org/2000/svg">
<path d="M0.721591 18V0.545454H3.88352V15.3494H11.571V18H0.721591ZM19.8892 18.2557C18.6108 18.2557 17.5028 17.9744 16.5653 17.4119C15.6278 16.8494 14.9006 16.0625 14.3835 15.0511C13.8722 14.0398 13.6165 12.858 13.6165 11.5057C13.6165 10.1534 13.8722 8.96875 14.3835 7.9517C14.9006 6.93466 15.6278 6.14489 16.5653 5.58239C17.5028 5.01989 18.6108 4.73864 19.8892 4.73864C21.1676 4.73864 22.2756 5.01989 23.2131 5.58239C24.1506 6.14489 24.875 6.93466 25.3864 7.9517C25.9034 8.96875 26.1619 10.1534 26.1619 11.5057C26.1619 12.858 25.9034 14.0398 25.3864 15.0511C24.875 16.0625 24.1506 16.8494 23.2131 17.4119C22.2756 17.9744 21.1676 18.2557 19.8892 18.2557ZM19.9062 15.7841C20.5994 15.7841 21.179 15.5937 21.6449 15.2131C22.1108 14.8267 22.4574 14.3097 22.6847 13.6619C22.9176 13.0142 23.0341 12.2926 23.0341 11.4972C23.0341 10.696 22.9176 9.97159 22.6847 9.32386C22.4574 8.67045 22.1108 8.15057 21.6449 7.7642C21.179 7.37784 20.5994 7.18466 19.9062 7.18466C19.196 7.18466 18.6051 7.37784 18.1335 7.7642C17.6676 8.15057 17.3182 8.67045 17.0852 9.32386C16.858 9.97159 16.7443 10.696 16.7443 11.4972C16.7443 12.2926 16.858 13.0142 17.0852 13.6619C17.3182 14.3097 17.6676 14.8267 18.1335 15.2131C18.6051 15.5937 19.196 15.7841 19.9062 15.7841ZM34.4737 23.1818C33.3658 23.1818 32.4141 23.0313 31.6186 22.7301C30.8232 22.4347 30.1839 22.0369 29.701 21.5369C29.218 21.0369 28.8828 20.483 28.6953 19.875L31.4737 19.2017C31.5987 19.4574 31.7805 19.7102 32.0192 19.9602C32.2578 20.2159 32.5788 20.4261 32.9822 20.5909C33.3913 20.7614 33.9055 20.8466 34.5249 20.8466C35.3999 20.8466 36.1243 20.6335 36.6982 20.2074C37.272 19.7869 37.5589 19.0938 37.5589 18.1278V15.6477H37.4055C37.2464 15.9659 37.0135 16.2926 36.7067 16.6278C36.4055 16.9631 36.005 17.2443 35.505 17.4716C35.0107 17.6989 34.3885 17.8125 33.6385 17.8125C32.6328 17.8125 31.7209 17.5767 30.9027 17.1051C30.0902 16.6278 29.4425 15.9176 28.9595 14.9744C28.4822 14.0256 28.2436 12.8381 28.2436 11.4119C28.2436 9.97443 28.4822 8.76136 28.9595 7.77273C29.4425 6.77841 30.093 6.02557 30.9112 5.5142C31.7294 4.99716 32.6413 4.73864 33.647 4.73864C34.4141 4.73864 35.0447 4.86932 35.5391 5.13068C36.0391 5.38636 36.4368 5.69602 36.7322 6.05966C37.0277 6.41761 37.2521 6.75568 37.4055 7.07386H37.576V4.90909H40.6186V18.2131C40.6186 19.3324 40.3516 20.2585 39.8175 20.9915C39.2834 21.7244 38.5533 22.2727 37.6271 22.6364C36.701 23 35.6499 23.1818 34.4737 23.1818ZM34.4993 15.392C35.1527 15.392 35.7095 15.233 36.1697 14.9148C36.63 14.5966 36.9794 14.1392 37.218 13.5426C37.4567 12.946 37.576 12.2301 37.576 11.3949C37.576 10.571 37.4567 9.84943 37.218 9.23011C36.9851 8.6108 36.6385 8.13068 36.1783 7.78977C35.7237 7.44318 35.1641 7.26989 34.4993 7.26989C33.8118 7.26989 33.2379 7.44886 32.7777 7.80682C32.3175 8.16477 31.9709 8.65625 31.7379 9.28125C31.505 9.90057 31.3885 10.6051 31.3885 11.3949C31.3885 12.196 31.505 12.8977 31.7379 13.5C31.9766 14.0966 32.326 14.5625 32.7862 14.8977C33.2521 15.2273 33.8232 15.392 34.4993 15.392ZM49.4908 18.2557C48.2124 18.2557 47.1044 17.9744 46.1669 17.4119C45.2294 16.8494 44.5021 16.0625 43.9851 15.0511C43.4737 14.0398 43.218 12.858 43.218 11.5057C43.218 10.1534 43.4737 8.96875 43.9851 7.9517C44.5021 6.93466 45.2294 6.14489 46.1669 5.58239C47.1044 5.01989 48.2124 4.73864 49.4908 4.73864C50.7692 4.73864 51.8771 5.01989 52.8146 5.58239C53.7521 6.14489 54.4766 6.93466 54.9879 7.9517C55.505 8.96875 55.7635 10.1534 55.7635 11.5057C55.7635 12.858 55.505 14.0398 54.9879 15.0511C54.4766 16.0625 53.7521 16.8494 52.8146 17.4119C51.8771 17.9744 50.7692 18.2557 49.4908 18.2557ZM49.5078 15.7841C50.201 15.7841 50.7805 15.5937 51.2464 15.2131C51.7124 14.8267 52.0589 14.3097 52.2862 13.6619C52.5192 13.0142 52.6357 12.2926 52.6357 11.4972C52.6357 10.696 52.5192 9.97159 52.2862 9.32386C52.0589 8.67045 51.7124 8.15057 51.2464 7.7642C50.7805 7.37784 50.201 7.18466 49.5078 7.18466C48.7976 7.18466 48.2067 7.37784 47.7351 7.7642C47.2692 8.15057 46.9197 8.67045 46.6868 9.32386C46.4595 9.97159 46.3459 10.696 46.3459 11.4972C46.3459 12.2926 46.4595 13.0142 46.6868 13.6619C46.9197 14.3097 47.2692 14.8267 47.7351 15.2131C48.2067 15.5937 48.7976 15.7841 49.5078 15.7841Z" fill="black"/>
</svg>
