<svg width="56" height="56" viewBox="0 0 56 56" fill="none" xmlns="http://www.w3.org/2000/svg">
<rect width="56" height="56" rx="28" fill="#B12433"/>
<path d="M32.2 23.8H32.214M23.8 23.8H23.814M42 28C42 35.732 35.732 42 28 42C20.268 42 14 35.732 14 28C14 20.268 20.268 14 28 14C35.732 14 42 20.268 42 28ZM32.9 23.8C32.9 24.1866 32.5866 24.5 32.2 24.5C31.8134 24.5 31.5 24.1866 31.5 23.8C31.5 23.4134 31.8134 23.1 32.2 23.1C32.5866 23.1 32.9 23.4134 32.9 23.8ZM24.5 23.8C24.5 24.1866 24.1866 24.5 23.8 24.5C23.4134 24.5 23.1 24.1866 23.1 23.8C23.1 23.4134 23.4134 23.1 23.8 23.1C24.1866 23.1 24.5 23.4134 24.5 23.8ZM28 35.7C31.5007 35.7 34.3 33.1338 34.3 30.8H21.7C21.7 33.1338 24.4993 35.7 28 35.7Z" stroke="#FFFCF7" stroke-width="2.8" stroke-linecap="round" stroke-linejoin="round"/>
</svg>
